<?xml version="1.0" standalone="no"?>
<!DOCTYPE svg PUBLIC "-//W3C//DTD SVG 20010904//EN"
 "http://www.w3.org/TR/2001/REC-SVG-20010904/DTD/svg10.dtd">
<svg version="1.0" xmlns="http://www.w3.org/2000/svg"
 width="505.000000pt" height="505.000000pt" viewBox="0 0 505.000000 505.000000"
 preserveAspectRatio="xMidYMid meet">
<metadata>
Created by potrace 1.11, written by Peter Selinger 2001-2013
</metadata>
<g transform="translate(0.000000,505.000000) scale(0.100000,-0.100000)"
fill="#000000" stroke="none">
<path d="M4673 3968 c-6 -7 -17 -26 -26 -43 -23 -46 -104 -121 -167 -154 -119
-63 -119 -63 -850 -71 -737 -7 -734 -7 -797 -72 -36 -37 -78 -124 -88 -180
l-7 -37 61 14 c111 26 284 44 500 51 l214 7 -6 -24 c-27 -109 -350 -1769 -355
-1818 -4 -55 -2 -66 13 -78 29 -21 125 -16 212 12 108 34 116 40 102 88 -14
51 -15 41 175 997 l162 815 239 6 c269 7 364 21 462 69 158 78 246 221 209
344 -18 60 -40 90 -53 74z"/>
<path d="M1901 3735 c-128 -33 -168 -55 -247 -133 -126 -126 -608 -743 -788
-1009 l-68 -101 -146 -4 c-119 -4 -158 -9 -203 -27 -73 -28 -131 -79 -163
-143 -37 -74 -35 -81 19 -58 73 31 192 51 287 48 l87 -3 -50 -85 c-158 -267
-248 -511 -225 -604 19 -74 100 -86 249 -35 51 17 96 35 100 39 5 4 1 23 -8
41 -14 26 -16 49 -12 113 7 101 46 218 131 391 l64 130 268 -3 c153 -2 335 1
422 8 84 7 155 10 158 7 3 -2 18 -71 35 -153 54 -268 112 -434 186 -531 78
-102 194 -96 323 16 l44 39 -45 43 c-112 109 -180 314 -249 743 -68 427 -84
921 -40 1193 15 90 14 103 -12 103 -13 -1 -65 -12 -117 -25z m-177 -950 c9
-82 21 -183 26 -224 6 -41 9 -76 6 -78 -10 -10 -392 -22 -543 -16 -95 3 -173
7 -173 8 0 11 107 193 167 285 93 141 156 224 342 454 l146 180 7 -230 c3
-126 13 -296 22 -379z"/>
</g>
</svg>
